<svg xmlns="http://www.w3.org/2000/svg" xmlns:xlink="http://www.w3.org/1999/xlink" width="68.895" height="69.071" viewBox="0 0 68.895 69.071">
  <defs>
    <clipPath id="clip-path">
      <rect id="Rectangle_118" data-name="Rectangle 118" width="49.784" height="50.338" fill="none"/>
    </clipPath>
    <clipPath id="clip-path-3">
      <rect id="Rectangle_116" data-name="Rectangle 116" width="41.484" height="28.764" fill="none"/>
    </clipPath>
  </defs>
  <g id="Group_303" data-name="Group 303" transform="matrix(0.848, 0.53, -0.53, 0.848, 26.675, 0)">
    <g id="Group_298" data-name="Group 298" clip-path="url(#clip-path)">
      <g id="Group_297" data-name="Group 297">
        <g id="Group_296" data-name="Group 296" clip-path="url(#clip-path)">
          <path id="Path_553" data-name="Path 553" d="M25.654,4.759l2.826,2.356a7.533,7.533,0,0,0,6.855,1.469l3.543-.992A7.533,7.533,0,0,1,47.9,17.646l-1.368,3.415a7.533,7.533,0,0,0,.722,6.973L49.293,31.1A7.533,7.533,0,0,1,42.52,42.787l-3.671-.245a7.534,7.534,0,0,0-6.409,2.841l-2.283,2.885a7.533,7.533,0,0,1-13.21-2.83l-.9-3.568a7.532,7.532,0,0,0-4.683-5.217l-3.449-1.28a7.533,7.533,0,0,1-1.39-13.438l3.114-1.959a7.532,7.532,0,0,0,3.515-6.066l.152-3.676a7.532,7.532,0,0,1,12.35-5.475" transform="translate(-1.896 -1.895)" fill="#ffde17"/>
          <g id="Group_295" data-name="Group 295" transform="translate(1.107 20.47)" opacity="0.5" style="mix-blend-mode: multiply;isolation: isolate">
            <g id="Group_294" data-name="Group 294">
              <g id="Group_293" data-name="Group 293" clip-path="url(#clip-path-3)">
                <path id="Path_554" data-name="Path 554" d="M38.36,75.133A52.858,52.858,0,0,1,22.1,69.32,55.16,55.16,0,0,1,9.06,59.312a43.185,43.185,0,0,1-3.144-3.693,7.532,7.532,0,0,0,2,13.008l3.449,1.28a7.533,7.533,0,0,1,4.683,5.217l.9,3.567a7.533,7.533,0,0,0,13.21,2.83l2.283-2.885a7.532,7.532,0,0,1,6.409-2.841l3.671.245a7.688,7.688,0,0,0,1.967-.121,59.493,59.493,0,0,1-6.131-.786" transform="translate(-3.006 -55.619)" fill="#ffd508"/>
              </g>
            </g>
          </g>
          <path id="Path_555" data-name="Path 555" d="M18.971,1.1a7.413,7.413,0,0,1,4.787,1.76L26.584,5.22a7.532,7.532,0,0,0,4.825,1.747,7.526,7.526,0,0,0,2.03-.279L36.981,5.7a7.7,7.7,0,0,1,2.078-.29,7.544,7.544,0,0,1,6.945,10.344l-1.368,3.416a7.532,7.532,0,0,0,.721,6.973L47.4,29.2a7.534,7.534,0,0,1-6.238,11.707c-.177,0-.355-.006-.535-.018l-3.671-.245c-.168-.011-.336-.017-.5-.017a7.532,7.532,0,0,0-5.906,2.858L28.26,46.372a7.406,7.406,0,0,1-5.871,2.862,7.5,7.5,0,0,1-7.339-5.692l-.9-3.567a7.533,7.533,0,0,0-4.682-5.217l-3.449-1.28A7.532,7.532,0,0,1,4.627,20.04l3.114-1.959a7.533,7.533,0,0,0,3.515-6.065l.151-3.676A7.534,7.534,0,0,1,18.971,1.1m0-1.1h0A8.65,8.65,0,0,0,10.3,8.294l-.152,3.676a6.427,6.427,0,0,1-3,5.177L4.039,19.105A8.637,8.637,0,0,0,5.633,34.513l3.449,1.28a6.427,6.427,0,0,1,4,4.453l.9,3.567a8.633,8.633,0,0,0,15.146,3.245l2.283-2.885a6.393,6.393,0,0,1,5.04-2.439c.143,0,.287,0,.43.014l3.671.245c.2.014.408.02.609.02a8.6,8.6,0,0,0,7.583-4.565,8.508,8.508,0,0,0-.426-8.857l-2.038-3.063a6.426,6.426,0,0,1-.616-5.951l1.368-3.415a8.492,8.492,0,0,0-.849-8.031A8.614,8.614,0,0,0,39.06,4.3a8.811,8.811,0,0,0-2.376.331l-3.543.992a6.429,6.429,0,0,1-1.732.238,6.442,6.442,0,0,1-4.118-1.491L24.465,2.016A8.494,8.494,0,0,0,18.971,0" transform="translate(0)" fill="#f7941d"/>
          <path id="Path_556" data-name="Path 556" d="M51.04,10.262c-1.085-3.326-5.645-3.545-8.3-2.355-1.025.459-.25,2.074.782,1.768a6.379,6.379,0,0,1,3.474-.006,22.94,22.94,0,0,1,3.014,1.438.735.735,0,0,0,1.034-.845" transform="translate(-26.703 -4.58)" fill="#fff"/>
          <path id="Path_557" data-name="Path 557" d="M68.385,17.753l-.133-.075-.067-.025a.208.208,0,0,0-.105,0,.265.265,0,0,0-.158.081.331.331,0,0,0-.068.127.286.286,0,0,0,.033.205l.076.135a.315.315,0,0,0,.282.153.32.32,0,0,0,.31-.329.324.324,0,0,0-.17-.273" transform="translate(-42.875 -11.151)" fill="#fff"/>
          <path id="Path_558" data-name="Path 558" d="M115.5,70.3c-.845-.536-1.74.76-1.015,1.418,1.322,1.2,2,2.969,2.789,4.526a.74.74,0,0,0,1.341-.216c.458-2.5-1.139-4.475-3.115-5.729" transform="translate(-72.181 -44.349)" fill="#fff"/>
          <path id="Path_559" data-name="Path 559" d="M123.624,92.861c-.656,0-.625,1.017.031,1.017s.625-1.017-.031-1.017" transform="translate(-77.823 -58.684)" fill="#fff"/>
        </g>
      </g>
    </g>
  </g>
</svg>
