<svg width="100%" height="100%" id="svg" viewBox="0 0 1440 400" xmlns="http://www.w3.org/2000/svg" class="transition duration-300 ease-in-out delay-150"><path d="M 0,400 C 0,400 0,133 0,133 C 123.96172248803828,154.5023923444976 247.92344497607655,176.00478468899522 338,168 C 428.07655502392345,159.99521531100478 484.26794258373207,122.48325358851676 559,124 C 633.7320574162679,125.51674641148324 727.0047846889952,166.0622009569378 821,161 C 914.9952153110048,155.9377990430622 1009.7129186602872,105.26794258373205 1113,93 C 1216.2870813397128,80.73205741626795 1328.1435406698565,106.86602870813397 1440,133 C 1440,133 1440,400 1440,400 Z" stroke="none" stroke-width="0" fill="#04d8cc88" class="transition-all duration-300 ease-in-out delay-150 path-0"></path><path d="M 0,400 C 0,400 0,266 0,266 C 118.5645933014354,255.8755980861244 237.1291866028708,245.7511961722488 331,252 C 424.8708133971292,258.2488038277512 494.0478468899522,280.8708133971292 563,276 C 631.9521531100478,271.1291866028708 700.6794258373205,238.76555023923441 815,239 C 929.3205741626795,239.23444976076559 1089.2344497607655,272.066985645933 1201,282 C 1312.7655502392345,291.933014354067 1376.3827751196172,278.96650717703346 1440,266 C 1440,266 1440,400 1440,400 Z" stroke="none" stroke-width="0" fill="#04d8ccff" class="transition-all duration-300 ease-in-out delay-150 path-1"></path></svg>