<?xml version="1.0" encoding="utf-8"?>
<!-- Generator: Adobe Illustrator 26.2.1, SVG Export Plug-In . SVG Version: 6.00 Build 0)  -->
<svg version="1.0" id="Layer_1" xmlns="http://www.w3.org/2000/svg" xmlns:xlink="http://www.w3.org/1999/xlink" x="0px" y="0px"
	 viewBox="0 0 2292.5 890.5" style="enable-background:new 0 0 2292.5 890.5;" xml:space="preserve">
<style type="text/css">
	.st0{opacity:0.7;fill:#2AD8CC;}
	.st1{fill:#2AD8CC;}
</style>
<g>
	<path class="st0" d="M2297,376.5c-23.1-1.2-75.3-17.7-106.6-19.5c-78-4.5-150.9,28.2-228.4,22.1c-73.4-5.7-131.2-172.2-210.3-182.6
		c-95.1-12.5-174.8,24-269.4,59.4c-74.5,28-133.1,65.3-199,60.1c-29.4-2.3-87-12.7-136.2-12.3c-49.3-0.4-107.2,6.4-136.2,12.3
		c-65.2,13.3-128.2,33.2-199,33.4c-99.3,0.3-144.5,66.8-239.4,80.8c-71.1,10.5-167-160-240.3-168.1
		c-92.2-10.2-150.4,90.3-228.4,94.8C72.3,358.8,39.5,375.1-3,376.5v482.9c365.4,0,1934.6,0,2300,0V376.5z"/>
	<path class="st1" d="M2070.3,460.5c-120.1,2.3-178.8,26.5-302.7,26.6c-78.8,0.1-145.7-11.3-224.4-10.9c-37.1,0.2-71.7,2-104.8,5.7
		c-206.4,23-358.8,16-398.9,13.3c-62.5-4.3-123.2-9.2-183.8-14.2c-33.2-2.7-67.7-5.5-104.8-5.7c-78.8-0.4-145.7,11-224.4,10.9
		c-124-0.1-182.6-24.3-302.7-26.6C136.8,457.9,34.5,468-3,479.4v410.1c234.5-0.1,602.5-0.3,903.6-0.5v0.7
		c115,0.1,973.2,0.5,1396.4,0.7V480.4C2259.5,469,2157.3,458.9,2070.3,460.5z"/>
</g>
</svg>
